<svg xmlns="http://www.w3.org/2000/svg" xmlns:xlink="http://www.w3.org/1999/xlink" width="85.852" height="80.532" viewBox="0 0 85.852 80.532">
  <defs>
    <filter id="Path_41" x="0" y="0" width="85.852" height="80.532" filterUnits="userSpaceOnUse">
      <feOffset input="SourceAlpha"/>
      <feGaussianBlur stdDeviation="5" result="blur"/>
      <feFlood flood-opacity="0.251"/>
      <feComposite operator="in" in2="blur"/>
      <feComposite in="SourceGraphic"/>
    </filter>
  </defs>
  <g transform="matrix(1, 0, 0, 1, 0, 0)" filter="url(#Path_41)">
    <g id="Path_41-2" data-name="Path 41" transform="translate(15 15)" fill="none">
      <path d="M27.926,50.532C12.91,40.443,5.035,31.264,1.806,23.582-6.847,2.994,17.866-6.851,27.926,5.3,37.985-6.851,62.7,2.994,54.046,23.582,50.816,31.264,42.941,40.443,27.926,50.532Z" stroke="none"/>
      <path d="M 27.92577362060547 48.11531448364258 C 34.42941284179688 43.6574821472168 39.81575393676758 39.17638397216797 43.9489860534668 34.78365707397461 C 47.80894088745117 30.68136978149414 50.58575057983398 26.65169143676758 52.20219421386719 22.80680274963379 C 53.4422607421875 19.85612487792969 53.98764038085938 17.04046821594238 53.82318496704102 14.43803596496582 C 53.67817306518555 12.1432580947876 52.98567199707031 10.04816913604736 51.76494216918945 8.210968971252441 C 50.50209426879883 6.310413360595703 48.68341827392578 4.728113651275635 46.50552749633789 3.635146856307983 C 44.37396240234375 2.565424680709839 41.98628616333008 2.000002384185791 39.60062789916992 2.000002384185791 C 35.50875091552734 2.000002384185791 31.90970611572266 3.625624656677246 29.46646308898926 6.577402591705322 L 27.92577362060547 8.438769340515137 L 26.38508415222168 6.577402591705322 C 23.94184112548828 3.625624656677246 20.34279632568359 2.000002384185791 16.25091743469238 2.000002384185791 C 13.86556243896484 2.000002384185791 11.47808456420898 2.565469026565552 9.346595764160156 3.635280132293701 C 7.168751239776611 4.728346824645996 5.35007381439209 6.310746669769287 4.087162494659424 8.211413383483887 C 2.866362571716309 10.04871368408203 2.173784732818604 12.14383602142334 2.028684616088867 14.43858051300049 C 1.864140272140503 17.04094696044922 2.409406900405884 19.85642433166504 3.649251461029053 22.80656814575195 C 5.265795707702637 26.65170288085938 8.042607307434082 30.68136978149414 11.90256214141846 34.78365707397461 C 16.03578186035156 39.17638397216797 21.42213439941406 43.6574821472168 27.92577362060547 48.11531448364258 M 27.92577362060547 50.5323486328125 C 12.91026210784912 40.44269180297852 5.035229206085205 31.26382446289062 1.805562496185303 23.58168029785156 C -4.258406162261963 9.152805328369141 6.067770481109619 1.304796001022623e-06 16.25092124938965 1.304796001022623e-06 C 20.59713745117188 1.304796001022623e-06 24.91669845581055 1.666759848594666 27.92577362060547 5.302146911621094 C 30.93423461914062 1.66750168800354 35.25530624389648 1.304796001022623e-06 39.60062789916992 1.304796001022623e-06 C 49.78464126586914 1.304796001022623e-06 60.11048889160156 9.151548385620117 54.04598617553711 23.58168029785156 C 50.81631851196289 31.26382446289062 42.9412727355957 40.44269180297852 27.92577362060547 50.5323486328125 Z" stroke="none" fill="#3fcee1"/>
    </g>
  </g>
</svg>
